<svg width="35px" height="48px" viewBox="0 0 35 32" role="img" aria-label="Icono de teléfono">
  <g>
    <!-- Círculo exterior -->
    <path style="stroke:none;fill-rule:evenodd;fill:currentColor;fill-opacity:1;"
      d="M17.5 0C8.008 0 0.5 7.508 0.5 16s7.508 16 17 16 17-7.508 17-16S26.992 0 17.5 0zm0 29C9.716 29 3.5 22.784 3.5 16S9.716 3 17.5 3 31.5 9.216 31.5 16 25.284 29 17.5 29z"/>
    <!-- Bocina de teléfono centrada -->
    <path style="stroke:none;fill-rule:evenodd;fill:currentColor;fill-opacity:1;"
      d="M22.624 19.777c-.38-.303-2.158-1.536-2.487-1.663-.33-.127-.571-.191-.79.191s-.906 1.257-1.113 1.515c-.207.258-.407.289-.756.096-.35-.192-1.596-.598-3.037-1.908-1.123-1.007-1.881-2.253-2.101-2.63-.22-.376-.024-.586.165-.775.17-.17.376-.445.563-.666.187-.22.249-.38.375-.633.125-.254.063-.475-.03-.665-.093-.19-.854-2.056-1.173-2.82-.309-.743-.622-.64-.854-.65-.22-.011-.475-.014-.727-.014-.252 0-.661.095-1.008.475-.347.38-1.322 1.302-1.322 3.174 0 1.872 1.353 3.68 1.541 3.935.187.255 2.671 4.092 6.467 5.734.905.392 1.608.626 2.159.802.905.288 1.728.247 2.379.15.727-.107 2.226-.912 2.538-1.79.314-.878.314-1.63.219-1.79-.094-.158-.345-.252-.727-.445z"/>
  </g>
</svg>
